<svg width="84" height="82" viewBox="0 0 84 82" fill="none" xmlns="http://www.w3.org/2000/svg">
<g filter="url(#filter0_d_558_552)">
<path d="M30.6001 53.2002H23.0001C22.3006 53.2002 21.7334 53.7674 21.7334 54.4669V62.0669C21.7334 62.7664 22.3006 63.3335 23.0001 63.3335H30.6001C31.2996 63.3335 31.8667 62.7664 31.8667 62.0669V54.4669C31.8667 53.7674 31.2996 53.2002 30.6001 53.2002ZM29.3334 60.8002H24.2667V55.7335H29.3334V60.8002Z" fill="#5D62B5"/>
<path d="M48.3333 39.2666H35.6666C34.2676 39.2666 33.1333 40.4009 33.1333 41.7999V46.8666C33.1333 48.2656 34.2676 49.3999 35.6666 49.3999H48.3333C49.7323 49.3999 50.8666 48.2656 50.8666 46.8666V41.7999C50.8666 40.4009 49.7323 39.2666 48.3333 39.2666ZM48.3333 43.0666H43.2666V41.7999H48.3333V43.0666ZM40.7333 41.7999V43.0666H35.6666V41.7999H40.7333ZM35.6666 45.5999H40.7333V46.8666H35.6666V45.5999ZM43.2666 46.8666V45.5999H48.3333V46.8666H43.2666Z" fill="#5D62B5"/>
<path d="M73.5566 64.6871C73.2411 63.0215 72.2714 61.5513 70.8631 60.6069C69.4554 59.6618 67.7279 59.3204 66.0667 59.66V37.2577L68.3378 39.5288C69.8815 41.0725 72.3852 41.0725 73.9289 39.5288C75.4727 37.985 75.4727 35.4814 73.9289 33.9376L66.0667 26.0754V10.1332C67.4657 10.1332 68.6 8.99889 68.6 7.59987V5.06654C68.6 3.66751 67.4657 2.5332 66.0667 2.5332H53.4C52.001 2.5332 50.8667 3.66751 50.8667 5.06654V7.59987C50.8667 8.99889 52.001 10.1332 53.4 10.1332V13.4087L44.6867 4.69544C43.1832 3.26055 40.8168 3.26055 39.3133 4.69544L10.0711 33.9376C8.52734 35.4814 8.52734 37.985 10.0711 39.5288C11.6148 41.0725 14.1185 41.0725 15.6622 39.5288L17.9333 37.2577V63.8169C16.5541 62.2168 14.3232 61.6453 12.3447 62.3857C10.3655 63.1254 9.05739 65.0204 9.06667 67.1332C6.26862 67.1332 4 69.4018 4 72.1999C4 72.8994 4.56715 73.4665 5.26667 73.4665H78.7333C79.4328 73.4665 80 72.8994 80 72.1999C79.9951 68.4506 77.2613 65.2629 73.5566 64.6871V64.6871ZM62.2568 62.1185C62.2568 62.1006 62.2667 62.0857 62.2667 62.0665V54.4665C62.2667 53.767 61.6995 53.1999 61 53.1999H53.4C52.7005 53.1999 52.1333 53.767 52.1333 54.4665V62.0665C52.1333 62.766 52.7005 63.3332 53.4 63.3332H61C61.2307 63.327 61.4552 63.2565 61.6476 63.1291C61.227 63.9808 61.0056 64.9172 61 65.8665V65.9933C58.518 66.5073 56.5803 68.45 56.0725 70.9332H50.8667V51.9332C50.8667 51.2337 50.2995 50.6665 49.6 50.6665H34.4C33.7005 50.6665 33.1333 51.2337 33.1333 51.9332V70.9332H25.4208C24.9563 68.2174 23.0618 65.9643 20.4667 65.0409V35.4665H63.5333V60.8326C63.0478 61.1976 62.618 61.6305 62.2568 62.1185ZM59.7333 55.7332V60.7999H54.6667V55.7332H59.7333ZM53.4 5.06654H66.0667V7.59987H53.4V5.06654ZM55.9333 10.1332H63.5333V23.5421L55.9333 15.9421V10.1332ZM13.8711 37.7376C13.3163 38.2924 12.417 38.2924 11.8622 37.7376C11.3075 37.1828 11.3075 36.2836 11.8622 35.7288L41.1044 6.48659C41.5992 5.9918 42.4008 5.9918 42.8956 6.48659L72.1378 35.7288C72.6925 36.2836 72.6925 37.1828 72.1378 37.7376C71.583 38.2924 70.6837 38.2924 70.1289 37.7376L44.6867 12.2954C43.203 10.8117 40.797 10.8117 39.3133 12.2954L13.8711 37.7376ZM41.1044 14.0866C41.5992 13.5918 42.4008 13.5918 42.8956 14.0866L61.7422 32.9332H22.2578L41.1044 14.0866ZM6.87412 70.9332C7.54085 69.7847 8.98441 69.3493 10.175 69.9374C10.6618 70.1774 11.2468 70.0809 11.6303 69.6968C12.0144 69.3134 12.1109 68.7283 11.8709 68.2415C11.6965 67.8977 11.6037 67.5185 11.6 67.1332C11.5944 65.8968 12.4851 64.8392 13.7041 64.6339C14.9231 64.4285 16.1113 65.1361 16.5108 66.3063C16.6945 66.8326 17.201 67.1777 17.7583 67.1548C17.8177 67.1555 17.8764 67.148 17.9333 67.1332C20.2428 67.1369 22.259 68.698 22.8404 70.9332H6.87412ZM35.6667 70.9332V53.1999H48.3333V70.9332H35.6667ZM58.6831 70.9332C59.2027 69.4358 60.6035 68.4234 62.1881 68.3999C62.2314 68.3999 62.3576 68.419 62.4009 68.4203C62.8017 68.432 63.1851 68.2576 63.4393 67.9478C63.6917 67.6342 63.7795 67.2192 63.6762 66.8308C63.5865 66.5166 63.5389 66.1925 63.5333 65.8665C63.5333 63.768 65.2348 62.0665 67.3333 62.0665C69.4319 62.0665 71.1333 63.768 71.1333 65.8665C71.1333 66.566 71.7005 67.1332 72.4 67.1332C74.7094 67.1369 76.7257 68.698 77.3071 70.9332H58.6831Z" fill="#5D62B5"/>
<path d="M39.4664 57H36.9331V59.5333H38.1998V62.0667H36.9331V64.6H39.4664C40.166 64.6 40.7331 64.0329 40.7331 63.3333V58.2667C40.7331 57.5672 40.166 57 39.4664 57Z" fill="#5D62B5"/>
</g>
<defs>
<filter id="filter0_d_558_552" x="0" y="0" width="84" height="84" filterUnits="userSpaceOnUse" color-interpolation-filters="sRGB">
<feFlood flood-opacity="0" result="BackgroundImageFix"/>
<feColorMatrix in="SourceAlpha" type="matrix" values="0 0 0 0 0 0 0 0 0 0 0 0 0 0 0 0 0 0 127 0" result="hardAlpha"/>
<feOffset dy="4"/>
<feGaussianBlur stdDeviation="2"/>
<feComposite in2="hardAlpha" operator="out"/>
<feColorMatrix type="matrix" values="0 0 0 0 0 0 0 0 0 0 0 0 0 0 0 0 0 0 0.25 0"/>
<feBlend mode="normal" in2="BackgroundImageFix" result="effect1_dropShadow_558_552"/>
<feBlend mode="normal" in="SourceGraphic" in2="effect1_dropShadow_558_552" result="shape"/>
</filter>
</defs>
</svg>
